<svg xmlns="http://www.w3.org/2000/svg" width="260.625" height="109.594" viewBox="0 0 260.625 109.594">
  <path d="M141.136,49.576a29.884,29.884,0,0,0,7.992-1.116,25.807,25.807,0,0,0,7.488-3.42l2.952-17.352h-13.1l-0.432,3.024a33.253,33.253,0,0,1,7.056,1.3L151.576,41.3q-0.288,1.873-2.88,3.024a15.973,15.973,0,0,1-6.48,1.152q-8.856,0-8.856-11.808a58.837,58.837,0,0,1,1.728-14.652A26.188,26.188,0,0,1,140.38,8.176a11.077,11.077,0,0,1,8.676-4.1A5.866,5.866,0,0,1,153.2,5.44a4.28,4.28,0,0,1,1.476,3.24,5.12,5.12,0,0,1-1.44,3.528,2.632,2.632,0,0,0,1.116,2.016,3.983,3.983,0,0,0,2.484.792,3.927,3.927,0,0,0,3.528-1.944,7.943,7.943,0,0,0,1.224-4.32,7.285,7.285,0,0,0-3.1-5.94Q155.392,0.4,149.776.4a20.071,20.071,0,0,0-12.888,4.176A25.1,25.1,0,0,0,129,16.024a48.289,48.289,0,0,0-2.628,16.488q0,8.856,4.068,12.96a14.384,14.384,0,0,0,10.692,4.1h0Zm33.839-.072a18.225,18.225,0,0,0,7.56-1.62,19.4,19.4,0,0,0,5.832-3.852l-2.088-2.664q-5.832,4.393-9.864,4.392a5.572,5.572,0,0,1-4.68-2.268q-1.728-2.268-1.728-6.876V34.96a32.156,32.156,0,0,0,10.764-1.692A18.8,18.8,0,0,0,188.3,28.7a9.019,9.019,0,0,0,2.736-6.336,7,7,0,0,0-2.484-5.4q-2.484-2.231-7.38-2.232a15.6,15.6,0,0,0-9.216,2.844,18.434,18.434,0,0,0-6.264,8.064,30.458,30.458,0,0,0-2.232,12.06,12.967,12.967,0,0,0,2.772,8.316q2.77,3.493,8.748,3.492h0Zm-4.608-18.072A22.229,22.229,0,0,1,174,21.784a7.992,7.992,0,0,1,6.66-3.744,3.712,3.712,0,0,1,2.988,1.224,4.4,4.4,0,0,1,1.044,2.952,7.08,7.08,0,0,1-1.8,4.752,11.882,11.882,0,0,1-5.04,3.276,21.7,21.7,0,0,1-7.488,1.188h0Zm26.711-8.784L200.678,49a13.217,13.217,0,0,0,3.744.5l12.384-19.872L219.614,49a10.361,10.361,0,0,0,3.816.5L236.822,28.84a43.673,43.673,0,0,0,3.744-6.984,35.764,35.764,0,0,0,1.872-5.544l-0.792-1.368a22.584,22.584,0,0,0-2.952-.144,29.472,29.472,0,0,0-7.776,1.08l0.216,2.664a4.3,4.3,0,0,1,2.592.576,2.353,2.353,0,0,1,.72,1.944q0,2.808-3.06,8.712t-6.66,11.592l-3.816-26.5a19.416,19.416,0,0,0-1.944-.144,8.336,8.336,0,0,0-2.34.288q-0.972.289-1.188,0.36,0,6.193-.936,8.928-2.016,5.761-8.784,16.992l-3.456-26.424a16.6,16.6,0,0,0-2.016-.144,14.045,14.045,0,0,0-3.924.648,30.542,30.542,0,0,0-4.212,1.584l0.36,2.3a4.9,4.9,0,0,1,3.24.648,3.935,3.935,0,0,1,1.368,2.736h0ZM256.262,49.5a14.6,14.6,0,0,0,9.4-3.132,19.376,19.376,0,0,0,5.94-8.28,30.054,30.054,0,0,0,2.016-11.052q0-5.9-2.988-9.108t-8.748-3.2a14.492,14.492,0,0,0-9.4,3.168,19.664,19.664,0,0,0-5.94,8.28,29.762,29.762,0,0,0-2.016,11.016q0,5.9,2.988,9.108t8.748,3.2h0Zm0-3.456a4.077,4.077,0,0,1-3.78-2.232,12.5,12.5,0,0,1-1.26-6.12,30.218,30.218,0,0,1,1.512-9.684,19.749,19.749,0,0,1,3.96-7.164,7.061,7.061,0,0,1,5.184-2.664,4.081,4.081,0,0,1,3.78,2.232,12.694,12.694,0,0,1,1.26,6.192,30.213,30.213,0,0,1-1.512,9.684,19.057,19.057,0,0,1-4,7.128,7.147,7.147,0,0,1-5.148,2.628h0ZM291.037,49.5a14.6,14.6,0,0,0,9.4-3.132,19.376,19.376,0,0,0,5.94-8.28,30.054,30.054,0,0,0,2.016-11.052q0-5.9-2.988-9.108t-8.748-3.2a14.492,14.492,0,0,0-9.4,3.168,19.664,19.664,0,0,0-5.94,8.28A29.762,29.762,0,0,0,279.3,37.192q0,5.9,2.988,9.108t8.748,3.2h0Zm0-3.456a4.077,4.077,0,0,1-3.78-2.232A12.5,12.5,0,0,1,286,37.7a30.218,30.218,0,0,1,1.512-9.684,19.749,19.749,0,0,1,3.96-7.164,7.061,7.061,0,0,1,5.184-2.664,4.081,4.081,0,0,1,3.78,2.232,12.694,12.694,0,0,1,1.26,6.192,30.213,30.213,0,0,1-1.512,9.684,19.057,19.057,0,0,1-4,7.128,7.147,7.147,0,0,1-5.148,2.628h0ZM338.412,49.5a8.976,8.976,0,0,0,4.284-1.3,23.255,23.255,0,0,0,4-2.736l-0.72-2.3q-0.648.361-1.764,0.864a4.8,4.8,0,0,1-1.908.5,1.174,1.174,0,0,1-1.368-1.368q0-1.08,1.368-8.568,0.648-3.672,1.26-7.308a36.928,36.928,0,0,0,.612-4.86,7.471,7.471,0,0,0-2.124-5.688,8.4,8.4,0,0,0-6.012-2.016,9.8,9.8,0,0,0-6.588,2.448,21.445,21.445,0,0,0-4.788,5.976l0.72-6.84-0.72-1.368a7.4,7.4,0,0,0-1.8-.216,17.573,17.573,0,0,0-4.464.648,32.56,32.56,0,0,0-4.608,1.584l0.36,2.3q1.728-.143,2.232-0.144a3.19,3.19,0,0,1,1.836.432,1.727,1.727,0,0,1,.612,1.512q0,0.937-4.32,27.936h6.12L322.5,37.264a39.206,39.206,0,0,1,4.248-12.96q3.094-5.616,7.272-5.616a3.422,3.422,0,0,1,2.772,1.26,5.571,5.571,0,0,1,1.044,3.636q0,1.225-1.728,11.16-1.728,10.081-1.728,11.232a3.775,3.775,0,0,0,.828,2.592q0.826,0.935,3.2.936h0ZM151.288,109a34.86,34.86,0,0,0,10.656-1.4,13.613,13.613,0,0,0,6.552-4.14,10.582,10.582,0,0,0,2.232-6.912,9.783,9.783,0,0,0-3.312-7.776q-3.312-2.879-10.224-3.312V84.232a19.1,19.1,0,0,0,6.7-1.728A8.662,8.662,0,0,0,167.6,79.12a9.732,9.732,0,0,0,1.188-4.9,11.668,11.668,0,0,0-1.332-5.724,10.689,10.689,0,0,0-3.852-3.96,19.162,19.162,0,0,0-6.084-2.3,38.842,38.842,0,0,0-8.028-.756h-20.52V109h22.32ZM140.056,88.48H149.2q5.184,0,7.7,1.512a4.95,4.95,0,0,1,2.52,4.536,4.321,4.321,0,0,1-2.088,4q-2.089,1.261-6.48,1.26h-10.8V88.48Zm0-17.928h8.568q4.464,0,6.66,1.26a4.272,4.272,0,0,1,2.2,4A4.583,4.583,0,0,1,155.1,80.02q-2.376,1.4-7.488,1.4h-7.56V70.552ZM205.9,107.884a15.918,15.918,0,0,0,7.092-6.588,22.255,22.255,0,0,0,2.592-11.3,22.242,22.242,0,0,0-2.52-11.124,16.262,16.262,0,0,0-6.984-6.66,22.574,22.574,0,0,0-10.224-2.232,22.873,22.873,0,0,0-10.224,2.2,16.034,16.034,0,0,0-6.984,6.624,22.231,22.231,0,0,0-2.52,11.124,22.437,22.437,0,0,0,2.52,11.16,16.237,16.237,0,0,0,6.948,6.7,22.346,22.346,0,0,0,10.188,2.232A23.427,23.427,0,0,0,205.9,107.884Zm-15.912-9.252q-2.2-2.951-2.2-8.856a18.592,18.592,0,0,1,.864-6.12,7.019,7.019,0,0,1,2.628-3.636,7.361,7.361,0,0,1,4.212-1.188,7.547,7.547,0,0,1,4.716,1.4,8.5,8.5,0,0,1,2.772,4.032,19.371,19.371,0,0,1,.936,6.444,18.324,18.324,0,0,1-.864,6.048,7.1,7.1,0,0,1-2.592,3.636,7.45,7.45,0,0,1-4.32,1.188A7.228,7.228,0,0,1,189.987,98.632Zm57.528,10.548a15.277,15.277,0,0,0,5.112-2.412,12.524,12.524,0,0,0,3.384-3.744,16.42,16.42,0,0,0,1.836-4.824l-10.08-2.16a15.311,15.311,0,0,1-.756,1.944,6.415,6.415,0,0,1-1.3,1.836,6.488,6.488,0,0,1-2.124,1.368,8.462,8.462,0,0,1-3.24.54,8.637,8.637,0,0,1-6.516-2.664q-2.556-2.663-2.556-8.568a16.488,16.488,0,0,1,1.08-6.336,8.958,8.958,0,0,1,2.988-3.96,7.4,7.4,0,0,1,4.428-1.368,7.625,7.625,0,0,1,3.888,1.044,6.558,6.558,0,0,1,2.736,3.312,11.381,11.381,0,0,1,.432,5.868l4.1-2.808-23.112.216v6.048l29.736-.216a29.643,29.643,0,0,0-.72-9.468,18.909,18.909,0,0,0-3.348-7.02,14.275,14.275,0,0,0-5.76-4.356,20.692,20.692,0,0,0-8.1-1.476,21.1,21.1,0,0,0-8.172,1.512,16.7,16.7,0,0,0-6.12,4.284,19.254,19.254,0,0,0-3.816,6.588,25.166,25.166,0,0,0-1.332,8.352,23.21,23.21,0,0,0,1.368,8.28,15.748,15.748,0,0,0,4,6.048,17.287,17.287,0,0,0,6.372,3.708A29.94,29.94,0,0,0,247.515,109.18Zm28.619-.18V94.024h3.24a8.283,8.283,0,0,1,5.184,1.4,8.9,8.9,0,0,1,2.772,3.924,38.276,38.276,0,0,1,1.692,6.048l0.72,3.6h12.6l-1.512-5.976a55.414,55.414,0,0,0-1.8-5.688,15.064,15.064,0,0,0-3.1-5.04,11.555,11.555,0,0,0-5.364-3.132,18.5,18.5,0,0,0-8.532.036V87.9a23.457,23.457,0,0,0,7.38-2.232,22.323,22.323,0,0,0,5.652-4,25.556,25.556,0,0,0,4.032-5.112,28.379,28.379,0,0,0,2.592-5.58H288.446a31.855,31.855,0,0,1-2.2,4.068,38.236,38.236,0,0,1-2.808,3.852,39.792,39.792,0,0,1-7.308,6.84V57.088H264.758V109h11.376Zm55.692,0.18a15.277,15.277,0,0,0,5.112-2.412,12.524,12.524,0,0,0,3.384-3.744,16.42,16.42,0,0,0,1.836-4.824l-10.08-2.16a15.311,15.311,0,0,1-.756,1.944,6.415,6.415,0,0,1-1.3,1.836,6.488,6.488,0,0,1-2.124,1.368,8.462,8.462,0,0,1-3.24.54,8.637,8.637,0,0,1-6.516-2.664Q315.59,96.4,315.59,90.5a16.488,16.488,0,0,1,1.08-6.336,8.958,8.958,0,0,1,2.988-3.96,7.4,7.4,0,0,1,4.428-1.368,7.625,7.625,0,0,1,3.888,1.044,6.558,6.558,0,0,1,2.736,3.312,11.381,11.381,0,0,1,.432,5.868l4.1-2.808-23.112.216v6.048L341.87,92.3a29.643,29.643,0,0,0-.72-9.468,18.909,18.909,0,0,0-3.348-7.02,14.275,14.275,0,0,0-5.76-4.356,20.692,20.692,0,0,0-8.1-1.476,21.1,21.1,0,0,0-8.172,1.512,16.7,16.7,0,0,0-6.12,4.284,19.254,19.254,0,0,0-3.816,6.588,25.166,25.166,0,0,0-1.332,8.352,23.21,23.21,0,0,0,1.368,8.28,15.748,15.748,0,0,0,4,6.048,17.287,17.287,0,0,0,6.372,3.708A29.94,29.94,0,0,0,331.826,109.18Zm28.835-.18V91.72a20.277,20.277,0,0,1,.864-6.12,10.024,10.024,0,0,1,2.628-4.392,6.314,6.314,0,0,1,4.5-1.656,5.532,5.532,0,0,1,5,2.7q1.692,2.7,1.692,8.6V109h11.664V89.56q0-10.223-3.492-14.9t-10.188-4.68a13.852,13.852,0,0,0-6.264,1.332,10.966,10.966,0,0,0-4.392,4.068,21.908,21.908,0,0,0-2.664,6.768h-1.44l-0.144-11.16h-9.36V109h11.592Z" transform="translate(-126.375 -0.406)"/>
</svg>
